<svg width="100%" height="100%" viewBox="0 0 320 38" fill="none" xmlns="http://www.w3.org/2000/svg">
<path d="M3.00684 34.4121H17.6553V37H0.199219V1.45312H3.00684V34.4121ZM39.9697 19.9834H26.1758V34.4121H42.0449V37H23.3926V1.45312H41.9229V4.08984H26.1758V17.3955H39.9697V19.9834ZM64.4082 27.0635H51.0781L48.0508 37H45.1455L56.4736 1.45312H59.0615L70.3896 37H67.4844L64.4082 27.0635ZM51.8838 24.4512H63.6025L57.7432 5.38379L51.8838 24.4512ZM86.7471 22.2051H78.4463V37H75.6387V1.45312H85.3799C88.6188 1.45312 91.1253 2.38086 92.8994 4.23633C94.6898 6.07552 95.585 8.639 95.585 11.9268C95.585 14.2217 95.0316 16.2399 93.9248 17.9814C92.818 19.7067 91.3288 20.903 89.457 21.5703L96.8545 36.6826V37H93.876L86.7471 22.2051ZM78.4463 19.6172H85.8682C87.9678 19.6172 89.6442 18.901 90.8975 17.4688C92.1507 16.0202 92.7773 14.1729 92.7773 11.9268C92.7773 9.43652 92.1263 7.50781 90.8242 6.14062C89.5221 4.77344 87.6992 4.08984 85.3555 4.08984H78.4463V19.6172ZM125.541 37H122.758L105.985 6.72656V37H103.178V1.45312H105.985L122.782 31.7754V1.45312H125.541V37ZM137.284 37H134.501V1.45312H137.284V37ZM168.559 37H165.775L149.003 6.72656V37H146.195V1.45312H149.003L165.8 31.7754V1.45312H168.559V37ZM198.661 32.874C197.473 34.404 195.976 35.5596 194.169 36.3408C192.362 37.1058 190.385 37.4883 188.236 37.4883C184.59 37.4883 181.726 36.2676 179.643 33.8262C177.559 31.3848 176.477 27.9993 176.396 23.6699V15.0273C176.396 10.4863 177.38 7.01139 179.35 4.60254C181.335 2.17741 184.159 0.964844 187.821 0.964844C191.093 0.964844 193.656 1.86816 195.512 3.6748C197.367 5.48145 198.409 8.08561 198.637 11.4873H195.854C195.561 8.75293 194.755 6.75911 193.437 5.50586C192.134 4.23633 190.271 3.60156 187.846 3.60156C184.949 3.60156 182.776 4.56999 181.327 6.50684C179.895 8.42741 179.179 11.2513 179.179 14.9785V23.1816C179.179 26.8926 179.968 29.7734 181.547 31.8242C183.142 33.875 185.372 34.9004 188.236 34.9004C191.345 34.9004 193.884 33.9157 195.854 31.9463V22.6934H188.065V20.0811H198.661V32.874ZM213.798 22.5957H203.935V20.0811H213.798V22.5957ZM239.97 4.08984H229.862V37H227.055V4.08984H216.972V1.45312H239.97V4.08984ZM266.361 1.45312V26.6729C266.345 30.1071 265.417 32.7682 263.578 34.6562C261.755 36.5443 259.159 37.4883 255.79 37.4883C252.372 37.4883 249.752 36.5605 247.929 34.7051C246.122 32.8333 245.219 30.1234 245.219 26.5752V1.45312H248.002V26.4775C248.002 32.0928 250.598 34.9004 255.79 34.9004C260.901 34.9004 263.489 32.1742 263.554 26.7217V1.45312H266.361ZM274.223 37V1.45312H283.231C286.438 1.45312 288.863 2.24251 290.507 3.82129C292.167 5.38379 292.997 7.69499 292.997 10.7549C292.997 12.5778 292.574 14.1647 291.728 15.5156C290.881 16.8665 289.709 17.8431 288.212 18.4453C289.937 18.8848 291.329 19.8939 292.387 21.4727C293.461 23.0352 293.998 24.8743 293.998 26.9902C293.998 30.0827 293.152 32.5241 291.459 34.3145C289.766 36.1048 287.366 37 284.257 37H274.223ZM277.006 19.9346V34.4121H284.379C286.495 34.4121 288.163 33.7611 289.384 32.459C290.604 31.1569 291.215 29.3503 291.215 27.0391C291.215 24.8906 290.645 23.1816 289.506 21.9121C288.383 20.6426 286.812 19.9834 284.794 19.9346H277.006ZM277.006 17.3711H283.476C285.591 17.3711 287.235 16.8096 288.407 15.6865C289.579 14.5635 290.165 12.8952 290.165 10.6816C290.165 8.41927 289.587 6.75911 288.432 5.70117C287.292 4.62695 285.559 4.08984 283.231 4.08984H277.006V17.3711ZM317.606 19.9834H303.812V34.4121H319.682V37H301.029V1.45312H319.56V4.08984H303.812V17.3955H317.606V19.9834Z" fill="#f6f6f6"/>
</svg>
